<svg xmlns="http://www.w3.org/2000/svg" viewBox="0 0 64 64" role="img" aria-label="United States flag">
  <rect width="64" height="64" fill="#b22234"/>
  <g fill="#fff">
    <rect y="5" width="64" height="5"/>
    <rect y="15" width="64" height="5"/>
    <rect y="25" width="64" height="5"/>
    <rect y="35" width="64" height="5"/>
    <rect y="45" width="64" height="5"/>
    <rect y="55" width="64" height="5"/>
  </g>
  <rect width="28" height="28" fill="#3c3b6e"/>
  <g fill="#fff">
    <circle cx="4" cy="4" r="1.1"/>
    <circle cx="10" cy="4" r="1.1"/>
    <circle cx="16" cy="4" r="1.1"/>
    <circle cx="22" cy="4" r="1.1"/>
    <circle cx="4" cy="10" r="1.1"/>
    <circle cx="10" cy="10" r="1.1"/>
    <circle cx="16" cy="10" r="1.1"/>
    <circle cx="22" cy="10" r="1.1"/>
    <circle cx="4" cy="16" r="1.1"/>
    <circle cx="10" cy="16" r="1.1"/>
    <circle cx="16" cy="16" r="1.1"/>
    <circle cx="22" cy="16" r="1.1"/>
    <circle cx="4" cy="22" r="1.1"/>
    <circle cx="10" cy="22" r="1.1"/>
    <circle cx="16" cy="22" r="1.1"/>
    <circle cx="22" cy="22" r="1.1"/>
  </g>
</svg>
